<svg xmlns="http://www.w3.org/2000/svg" xmlns:xlink="http://www.w3.org/1999/xlink" width="238" zoomAndPan="magnify" viewBox="0 0 178.5 196.499993" height="262" preserveAspectRatio="xMidYMid meet" version="1.0"><defs><clipPath id="d0c268cd6e"><path d="M 9.972656 29.695312 L 103 29.695312 L 103 111 L 9.972656 111 Z M 9.972656 29.695312 " clip-rule="nonzero"/></clipPath><clipPath id="6f87025cf8"><path d="M 9.972656 115 L 103 115 L 103 195.730469 L 9.972656 195.730469 Z M 9.972656 115 " clip-rule="nonzero"/></clipPath><clipPath id="d10d7dd00b"><path d="M 0 22.554688 L 95 22.554688 L 95 105 L 0 105 Z M 0 22.554688 " clip-rule="nonzero"/></clipPath><clipPath id="947bec1628"><path d="M 0 107 L 95 107 L 95 189.339844 L 0 189.339844 Z M 0 107 " clip-rule="nonzero"/></clipPath><clipPath id="0568e7278b"><path d="M 103 2 L 150 2 L 150 43 L 103 43 Z M 103 2 " clip-rule="nonzero"/></clipPath><clipPath id="52957aa9d4"><path d="M 101.953125 3.582031 L 148.1875 0.0429688 L 151.386719 41.800781 L 105.152344 45.34375 Z M 101.953125 3.582031 " clip-rule="nonzero"/></clipPath><clipPath id="174989b971"><path d="M 101.953125 3.582031 L 148.1875 0.0429688 L 151.386719 41.800781 L 105.152344 45.34375 Z M 101.953125 3.582031 " clip-rule="nonzero"/></clipPath><clipPath id="c204c0063a"><path d="M 138 23 L 143 23 L 143 27 L 138 27 Z M 138 23 " clip-rule="nonzero"/></clipPath><clipPath id="995a8bae10"><path d="M 101.953125 3.582031 L 148.1875 0.0429688 L 151.386719 41.800781 L 105.152344 45.34375 Z M 101.953125 3.582031 " clip-rule="nonzero"/></clipPath><clipPath id="62a394ff62"><path d="M 101.953125 3.582031 L 148.1875 0.0429688 L 151.386719 41.800781 L 105.152344 45.34375 Z M 101.953125 3.582031 " clip-rule="nonzero"/></clipPath></defs><g clip-path="url(#d0c268cd6e)"><path fill="#fbcb1c" d="M 79.726562 29.695312 L 33.222656 29.695312 L 9.972656 69.96875 L 33.222656 110.242188 L 79.726562 110.242188 L 102.980469 69.96875 Z M 79.726562 29.695312 " fill-opacity="1" fill-rule="nonzero"/></g><path fill="#fbcb1c" d="M 154.714844 73.082031 L 108.210938 73.082031 L 84.960938 113.355469 L 108.210938 153.628906 L 154.714844 153.628906 L 177.96875 113.355469 Z M 154.714844 73.082031 " fill-opacity="1" fill-rule="nonzero"/><g clip-path="url(#6f87025cf8)"><path fill="#fbcb1c" d="M 79.726562 115.398438 L 33.222656 115.398438 L 9.972656 155.671875 L 33.222656 195.945312 L 79.726562 195.945312 L 102.980469 155.671875 Z M 79.726562 115.398438 " fill-opacity="1" fill-rule="nonzero"/></g><g clip-path="url(#d10d7dd00b)"><path fill="#211c1d" d="M 70.640625 104.136719 L 23.546875 104.136719 L 0 63.351562 L 23.546875 22.5625 L 70.640625 22.5625 L 94.191406 63.351562 Z M 25.375 100.96875 L 68.8125 100.96875 L 90.53125 63.351562 L 68.8125 25.730469 L 25.375 25.730469 L 3.65625 63.351562 Z M 25.375 100.96875 " fill-opacity="1" fill-rule="nonzero"/></g><path fill="#211c1d" d="M 144.453125 146.917969 L 97.355469 146.917969 L 73.808594 106.132812 L 97.355469 65.34375 L 144.453125 65.34375 L 168 106.132812 Z M 99.183594 143.75 L 142.621094 143.75 L 164.339844 106.132812 L 142.621094 68.511719 L 99.183594 68.511719 L 77.46875 106.132812 Z M 99.183594 143.75 " fill-opacity="1" fill-rule="nonzero"/><g clip-path="url(#947bec1628)"><path fill="#211c1d" d="M 70.640625 189.222656 L 23.546875 189.222656 L 0 148.4375 L 23.546875 107.648438 L 70.640625 107.648438 L 94.191406 148.4375 Z M 25.375 186.054688 L 68.8125 186.054688 L 90.53125 148.4375 L 68.8125 110.820312 L 25.375 110.820312 L 3.65625 148.4375 Z M 25.375 186.054688 " fill-opacity="1" fill-rule="nonzero"/></g><g clip-path="url(#0568e7278b)"><g clip-path="url(#52957aa9d4)"><g clip-path="url(#174989b971)"><path fill="#211c1d" d="M 146.609375 24.726562 C 147.382812 26.300781 147.367188 28.132812 146.699219 29.96875 C 144.976562 30.925781 143.394531 30.601562 143.3125 30.585938 C 143.007812 30.519531 142.699219 30.710938 142.632812 31.015625 C 142.5625 31.324219 142.757812 31.628906 143.0625 31.699219 C 143.144531 31.714844 144.421875 31.980469 146.003906 31.492188 C 145.265625 32.839844 144.199219 34.15625 142.863281 35.347656 C 140.667969 34.441406 137.753906 32.734375 136.113281 29.742188 C 135.15625 28.003906 134.742188 25.988281 134.875 23.734375 C 134.914062 22.964844 135.015625 22.164062 135.183594 21.339844 C 135.484375 21.269531 135.78125 21.210938 136.078125 21.160156 C 139.300781 20.589844 142.273438 20.992188 144.339844 22.277344 C 145.332031 22.886719 146.109375 23.710938 146.609375 24.726562 Z M 138.410156 38.328125 C 137.761719 38.648438 137.097656 38.925781 136.445312 39.164062 C 134.222656 38.351562 130.785156 36.609375 128.949219 33.261719 C 127.621094 30.84375 127.332031 27.914062 128.078125 24.523438 C 128.503906 24.21875 128.953125 23.929688 129.421875 23.652344 C 129.875 23.386719 130.347656 23.128906 130.832031 22.890625 C 131.0625 22.777344 131.296875 22.671875 131.53125 22.566406 C 131.484375 23.003906 131.453125 23.429688 131.4375 23.851562 C 131.324219 26.625 131.886719 29.144531 133.117188 31.386719 C 134.773438 34.414062 137.359375 36.382812 139.703125 37.636719 C 139.289062 37.878906 138.855469 38.109375 138.410156 38.328125 Z M 126.484375 39.6875 C 125.324219 39.277344 124.339844 38.667969 123.585938 37.863281 C 122.875 36.921875 122.289062 35.671875 122.132812 34.90625 C 121.789062 32.773438 122.582031 30.378906 124.25 28.167969 C 124.269531 30.628906 124.835938 32.878906 125.945312 34.90625 C 127.265625 37.3125 129.167969 39.046875 131.070312 40.285156 C 129.390625 40.367188 127.824219 40.164062 126.484375 39.6875 Z M 114.480469 22.949219 C 111.523438 22.101562 108.800781 20.476562 106.652344 18.191406 C 109.050781 16.183594 111.941406 14.882812 115.078125 14.402344 C 115.34375 14.363281 115.609375 14.332031 115.875 14.304688 C 115.949219 14.292969 116.015625 14.292969 116.089844 14.28125 C 116.3125 14.261719 116.539062 14.246094 116.769531 14.234375 C 116.839844 14.230469 116.898438 14.226562 116.96875 14.226562 C 117.199219 14.214844 117.425781 14.210938 117.652344 14.210938 C 117.722656 14.210938 117.792969 14.214844 117.867188 14.214844 C 118.0625 14.214844 118.257812 14.226562 118.453125 14.234375 C 118.578125 14.242188 118.703125 14.242188 118.828125 14.25 C 120.757812 14.386719 122.640625 14.839844 124.410156 15.589844 C 126.574219 16.507812 128.558594 17.871094 130.207031 19.613281 C 129.746094 20.003906 129.257812 20.359375 128.765625 20.699219 C 128.511719 20.867188 128.253906 21.03125 127.988281 21.1875 C 127.914062 21.238281 127.828125 21.285156 127.75 21.332031 C 127.429688 21.511719 127.105469 21.691406 126.773438 21.855469 C 126.433594 22.019531 126.085938 22.171875 125.730469 22.316406 C 125.632812 22.355469 125.535156 22.398438 125.4375 22.433594 C 124.269531 22.886719 123.046875 23.21875 121.777344 23.410156 C 119.304688 23.785156 116.820312 23.617188 114.480469 22.949219 Z M 115.5 5.589844 C 118.625 5.449219 121.710938 6.160156 124.5 7.6875 C 128.648438 9.953125 131.632812 13.835938 132.855469 18.304688 C 128.929688 13.777344 123.167969 11.238281 117.238281 11.363281 C 117.214844 11.359375 117.191406 11.367188 117.164062 11.367188 C 116.289062 9.570312 115.714844 7.621094 115.5 5.589844 Z M 148.03125 16.042969 C 147.96875 16.003906 147.894531 15.976562 147.816406 15.957031 C 146.535156 15.652344 143.953125 15.890625 142.238281 18.503906 C 142.257812 16.546875 143.007812 15.339844 143.773438 14.625 C 144.238281 15.332031 145.160156 15.601562 145.9375 15.222656 C 146.78125 14.808594 147.132812 13.785156 146.714844 12.941406 C 146.300781 12.089844 145.28125 11.746094 144.433594 12.160156 C 144.367188 12.195312 144.308594 12.238281 144.246094 12.28125 C 143.046875 12.847656 140.433594 14.589844 140.527344 18.765625 C 139.074219 18.609375 137.523438 18.640625 135.925781 18.894531 C 134.769531 13.125 131.105469 8.046875 125.867188 5.183594 C 122.152344 3.15625 117.988281 2.355469 113.808594 2.875 C 113.078125 2.960938 112.542969 3.59375 112.558594 4.328125 C 112.625 6.894531 113.191406 9.378906 114.175781 11.679688 C 110.179688 12.382812 106.550781 14.226562 103.660156 17.054688 C 103.136719 17.566406 103.085938 18.398438 103.550781 18.96875 C 108.015625 24.519531 115.167969 27.304688 122.207031 26.230469 C 122.492188 26.1875 122.773438 26.132812 123.054688 26.074219 C 120.671875 28.910156 119.480469 32.15625 119.867188 35.089844 C 119.816406 35.113281 119.765625 35.125 119.714844 35.152344 C 118.195312 35.898438 117.460938 37.503906 118.066406 38.738281 C 118.671875 39.972656 120.390625 40.371094 121.910156 39.625 C 121.960938 39.601562 122.003906 39.566406 122.050781 39.535156 C 124.757812 42.265625 129.515625 43.210938 134.550781 42.097656 C 136.164062 41.734375 137.804688 41.164062 139.414062 40.375 L 139.511719 40.328125 C 140.460938 39.855469 141.355469 39.328125 142.1875 38.761719 C 143.335938 37.972656 144.375 37.097656 145.273438 36.164062 C 149.015625 32.320312 150.511719 27.5 148.65625 23.71875 C 147.675781 21.722656 145.898438 20.289062 143.65625 19.472656 C 144.421875 18.277344 145.351562 17.808594 146.101562 17.644531 C 146.253906 18.210938 146.746094 18.640625 147.359375 18.675781 C 148.125 18.722656 148.78125 18.140625 148.824219 17.375 C 148.855469 16.792969 148.527344 16.277344 148.03125 16.042969 " fill-opacity="1" fill-rule="nonzero"/></g></g></g><g clip-path="url(#c204c0063a)"><g clip-path="url(#995a8bae10)"><g clip-path="url(#62a394ff62)"><path fill="#211c1d" d="M 141.898438 24.238281 C 142.324219 25.105469 141.964844 26.15625 141.097656 26.582031 C 140.226562 27.007812 139.179688 26.652344 138.753906 25.78125 C 138.324219 24.914062 138.683594 23.863281 139.550781 23.4375 C 139.691406 23.371094 139.835938 23.320312 139.980469 23.292969 C 139.628906 23.539062 139.496094 24.011719 139.691406 24.410156 C 139.90625 24.847656 140.4375 25.03125 140.875 24.816406 C 141.316406 24.601562 141.496094 24.070312 141.28125 23.628906 C 141.257812 23.582031 141.226562 23.535156 141.195312 23.492188 C 141.488281 23.660156 141.738281 23.914062 141.898438 24.238281 " fill-opacity="1" fill-rule="nonzero"/></g></g></g></svg>