<svg xmlns="http://www.w3.org/2000/svg" xmlns:xlink="http://www.w3.org/1999/xlink" width="418" zoomAndPan="magnify" viewBox="0 0 313.5 152.249993" height="203" preserveAspectRatio="xMidYMid meet" version="1.0"><defs><g/><clipPath id="931068c637"><path d="M 0.519531 0 L 312.484375 0 L 312.484375 151.503906 L 0.519531 151.503906 Z M 0.519531 0 " clip-rule="nonzero"/></clipPath><clipPath id="e3973aa9f2"><path d="M 4.28125 44.121094 L 40 44.121094 L 40 75 L 4.28125 75 Z M 4.28125 44.121094 " clip-rule="nonzero"/></clipPath><clipPath id="23810288aa"><path d="M 32 60 L 67.71875 60 L 67.71875 91 L 32 91 Z M 32 60 " clip-rule="nonzero"/></clipPath><clipPath id="6424f62f16"><path d="M 4.28125 76 L 40 76 L 40 106.8125 L 4.28125 106.8125 Z M 4.28125 76 " clip-rule="nonzero"/></clipPath><clipPath id="d4e2acc5ec"><path d="M 0.519531 41.429688 L 37 41.429688 L 37 73 L 0.519531 73 Z M 0.519531 41.429688 " clip-rule="nonzero"/></clipPath><clipPath id="94bd689984"><path d="M 28 57 L 63.957031 57 L 63.957031 89 L 28 89 Z M 28 57 " clip-rule="nonzero"/></clipPath><clipPath id="eedbb62996"><path d="M 0.519531 73 L 37 73 L 37 104.121094 L 0.519531 104.121094 Z M 0.519531 73 " clip-rule="nonzero"/></clipPath><clipPath id="ecbb0ce648"><path d="M 39 23 L 67 23 L 67 48 L 39 48 Z M 39 23 " clip-rule="nonzero"/></clipPath><clipPath id="057f4b7fc3"><path d="M 38.429688 24.179688 L 65.964844 22.070312 L 67.84375 46.628906 L 40.3125 48.738281 Z M 38.429688 24.179688 " clip-rule="nonzero"/></clipPath><clipPath id="840e0bafb4"><path d="M 38.429688 24.179688 L 65.964844 22.070312 L 67.84375 46.628906 L 40.3125 48.738281 Z M 38.429688 24.179688 " clip-rule="nonzero"/></clipPath><clipPath id="cc39c40c2b"><path d="M 59 35 L 63 35 L 63 38 L 59 38 Z M 59 35 " clip-rule="nonzero"/></clipPath><clipPath id="848988bbb4"><path d="M 38.429688 24.179688 L 65.964844 22.070312 L 67.84375 46.628906 L 40.3125 48.738281 Z M 38.429688 24.179688 " clip-rule="nonzero"/></clipPath><clipPath id="7a56539809"><path d="M 38.429688 24.179688 L 65.964844 22.070312 L 67.84375 46.628906 L 40.3125 48.738281 Z M 38.429688 24.179688 " clip-rule="nonzero"/></clipPath></defs><g clip-path="url(#931068c637)"><path fill="#ffffff" d="M 0.519531 0 L 312.484375 0 L 312.484375 151.503906 L 0.519531 151.503906 Z M 0.519531 0 " fill-opacity="1" fill-rule="nonzero"/></g><g clip-path="url(#e3973aa9f2)"><path fill="#fbcb1c" d="M 30.59375 44.121094 L 13.054688 44.121094 L 4.285156 59.308594 L 13.054688 74.5 L 30.59375 74.5 L 39.363281 59.308594 Z M 30.59375 44.121094 " fill-opacity="1" fill-rule="nonzero"/></g><g clip-path="url(#23810288aa)"><path fill="#fbcb1c" d="M 58.875 60.484375 L 41.335938 60.484375 L 32.566406 75.671875 L 41.335938 90.863281 L 58.875 90.863281 L 67.644531 75.671875 Z M 58.875 60.484375 " fill-opacity="1" fill-rule="nonzero"/></g><g clip-path="url(#6424f62f16)"><path fill="#fbcb1c" d="M 30.59375 76.441406 L 13.054688 76.441406 L 4.285156 91.632812 L 13.054688 106.824219 L 30.59375 106.824219 L 39.363281 91.632812 Z M 30.59375 76.441406 " fill-opacity="1" fill-rule="nonzero"/></g><g clip-path="url(#d4e2acc5ec)"><path fill="#211c1d" d="M 27.164062 72.199219 L 9.402344 72.199219 L 0.519531 56.8125 L 9.402344 41.429688 L 27.164062 41.429688 L 36.046875 56.8125 Z M 10.089844 71.003906 L 26.476562 71.003906 L 34.667969 56.8125 L 26.476562 42.625 L 10.089844 42.625 L 1.898438 56.8125 Z M 10.089844 71.003906 " fill-opacity="1" fill-rule="nonzero"/></g><g clip-path="url(#94bd689984)"><path fill="#211c1d" d="M 55.003906 88.335938 L 37.242188 88.335938 L 28.359375 72.949219 L 37.242188 57.566406 L 55.003906 57.566406 L 63.886719 72.949219 Z M 37.929688 87.140625 L 54.316406 87.140625 L 62.507812 72.949219 L 54.316406 58.761719 L 37.929688 58.761719 L 29.738281 72.949219 Z M 37.929688 87.140625 " fill-opacity="1" fill-rule="nonzero"/></g><g clip-path="url(#eedbb62996)"><path fill="#211c1d" d="M 27.164062 104.292969 L 9.402344 104.292969 L 0.519531 88.90625 L 9.402344 73.523438 L 27.164062 73.523438 L 36.046875 88.90625 Z M 10.089844 103.097656 L 26.476562 103.097656 L 34.667969 88.90625 L 26.476562 74.71875 L 10.089844 74.71875 L 1.898438 88.90625 Z M 10.089844 103.097656 " fill-opacity="1" fill-rule="nonzero"/></g><g clip-path="url(#ecbb0ce648)"><g clip-path="url(#057f4b7fc3)"><g clip-path="url(#840e0bafb4)"><path fill="#211c1d" d="M 64.71875 36.628906 C 65.171875 37.554688 65.164062 38.632812 64.769531 39.714844 C 63.757812 40.277344 62.828125 40.085938 62.777344 40.078125 C 62.597656 40.039062 62.414062 40.152344 62.378906 40.332031 C 62.335938 40.511719 62.449219 40.691406 62.628906 40.734375 C 62.675781 40.742188 63.429688 40.898438 64.363281 40.613281 C 63.925781 41.40625 63.300781 42.179688 62.511719 42.882812 C 61.222656 42.347656 59.503906 41.34375 58.539062 39.582031 C 57.976562 38.558594 57.730469 37.371094 57.808594 36.042969 C 57.832031 35.589844 57.894531 35.121094 57.992188 34.636719 C 58.167969 34.59375 58.34375 34.558594 58.519531 34.53125 C 60.414062 34.195312 62.164062 34.429688 63.382812 35.1875 C 63.964844 35.546875 64.425781 36.03125 64.71875 36.628906 Z M 59.890625 44.636719 C 59.507812 44.824219 59.117188 44.988281 58.734375 45.128906 C 57.425781 44.648438 55.402344 43.625 54.320312 41.652344 C 53.542969 40.230469 53.371094 38.503906 53.808594 36.507812 C 54.0625 36.328125 54.324219 36.160156 54.601562 35.996094 C 54.867188 35.839844 55.144531 35.6875 55.429688 35.546875 C 55.566406 35.480469 55.703125 35.417969 55.839844 35.359375 C 55.8125 35.613281 55.796875 35.867188 55.785156 36.113281 C 55.722656 37.746094 56.050781 39.230469 56.773438 40.550781 C 57.75 42.332031 59.273438 43.492188 60.652344 44.226562 C 60.410156 44.371094 60.152344 44.507812 59.890625 44.636719 Z M 52.871094 45.433594 C 52.1875 45.195312 51.609375 44.835938 51.164062 44.363281 C 50.746094 43.808594 50.402344 43.074219 50.308594 42.621094 C 50.105469 41.367188 50.574219 39.957031 51.554688 38.65625 C 51.566406 40.101562 51.902344 41.429688 52.554688 42.621094 C 53.332031 44.039062 54.449219 45.058594 55.570312 45.789062 C 54.582031 45.835938 53.660156 45.71875 52.871094 45.433594 Z M 45.804688 35.582031 C 44.0625 35.082031 42.460938 34.128906 41.195312 32.78125 C 42.609375 31.597656 44.3125 30.835938 46.15625 30.550781 C 46.3125 30.527344 46.46875 30.511719 46.625 30.492188 C 46.667969 30.488281 46.707031 30.488281 46.75 30.480469 C 46.882812 30.46875 47.015625 30.460938 47.152344 30.453125 C 47.191406 30.453125 47.230469 30.449219 47.269531 30.449219 C 47.402344 30.441406 47.539062 30.4375 47.671875 30.441406 C 47.714844 30.4375 47.753906 30.441406 47.796875 30.441406 C 47.914062 30.441406 48.027344 30.449219 48.144531 30.453125 C 48.214844 30.457031 48.292969 30.457031 48.363281 30.460938 C 49.5 30.542969 50.609375 30.808594 51.648438 31.25 C 52.925781 31.792969 54.09375 32.59375 55.0625 33.621094 C 54.789062 33.847656 54.503906 34.058594 54.214844 34.257812 C 54.0625 34.355469 53.914062 34.453125 53.757812 34.546875 C 53.710938 34.574219 53.660156 34.605469 53.613281 34.628906 C 53.429688 34.738281 53.238281 34.84375 53.039062 34.9375 C 52.84375 35.035156 52.636719 35.125 52.425781 35.210938 C 52.371094 35.234375 52.3125 35.257812 52.253906 35.28125 C 51.566406 35.546875 50.847656 35.742188 50.101562 35.855469 C 48.644531 36.074219 47.183594 35.976562 45.804688 35.582031 Z M 46.402344 25.363281 C 48.242188 25.28125 50.0625 25.699219 51.703125 26.597656 C 54.144531 27.933594 55.902344 30.21875 56.621094 32.847656 C 54.3125 30.183594 50.917969 28.6875 47.429688 28.761719 C 47.414062 28.761719 47.398438 28.765625 47.386719 28.765625 C 46.871094 27.707031 46.53125 26.558594 46.402344 25.363281 Z M 65.554688 31.515625 C 65.515625 31.492188 65.476562 31.476562 65.429688 31.464844 C 64.675781 31.285156 63.15625 31.425781 62.144531 32.964844 C 62.15625 31.8125 62.597656 31.101562 63.046875 30.683594 C 63.324219 31.097656 63.863281 31.257812 64.324219 31.035156 C 64.820312 30.789062 65.023438 30.1875 64.78125 29.691406 C 64.535156 29.191406 63.933594 28.988281 63.4375 29.230469 C 63.398438 29.25 63.363281 29.277344 63.328125 29.300781 C 62.621094 29.636719 61.082031 30.660156 61.136719 33.121094 C 60.28125 33.027344 59.371094 33.046875 58.429688 33.195312 C 57.746094 29.796875 55.59375 26.8125 52.507812 25.125 C 50.320312 23.929688 47.871094 23.460938 45.410156 23.765625 C 44.980469 23.816406 44.664062 24.1875 44.675781 24.621094 C 44.710938 26.132812 45.046875 27.59375 45.625 28.949219 C 43.273438 29.363281 41.136719 30.449219 39.433594 32.113281 C 39.125 32.414062 39.097656 32.902344 39.371094 33.242188 C 42 36.507812 46.210938 38.144531 50.351562 37.515625 C 50.523438 37.488281 50.6875 37.457031 50.851562 37.421875 C 49.449219 39.089844 48.746094 41.003906 48.976562 42.730469 C 48.945312 42.742188 48.917969 42.75 48.886719 42.765625 C 47.992188 43.207031 47.558594 44.152344 47.914062 44.875 C 48.269531 45.601562 49.285156 45.839844 50.179688 45.398438 C 50.210938 45.382812 50.234375 45.367188 50.261719 45.347656 C 51.855469 46.953125 54.65625 47.507812 57.621094 46.855469 C 58.570312 46.640625 59.535156 46.304688 60.484375 45.839844 L 60.539062 45.8125 C 61.097656 45.535156 61.625 45.222656 62.113281 44.890625 C 62.792969 44.425781 63.402344 43.910156 63.933594 43.363281 C 66.132812 41.097656 67.015625 38.261719 65.921875 36.035156 C 65.34375 34.859375 64.300781 34.015625 62.980469 33.535156 C 63.429688 32.832031 63.976562 32.554688 64.421875 32.457031 C 64.507812 32.792969 64.796875 33.046875 65.160156 33.066406 C 65.609375 33.09375 65.996094 32.75 66.023438 32.300781 C 66.039062 31.957031 65.847656 31.652344 65.554688 31.515625 " fill-opacity="1" fill-rule="nonzero"/></g></g></g><g clip-path="url(#cc39c40c2b)"><g clip-path="url(#848988bbb4)"><g clip-path="url(#7a56539809)"><path fill="#211c1d" d="M 61.945312 36.34375 C 62.195312 36.851562 61.984375 37.472656 61.472656 37.722656 C 60.960938 37.972656 60.34375 37.761719 60.09375 37.25 C 59.839844 36.738281 60.050781 36.121094 60.5625 35.871094 C 60.644531 35.832031 60.730469 35.800781 60.816406 35.785156 C 60.609375 35.929688 60.53125 36.207031 60.644531 36.441406 C 60.773438 36.699219 61.085938 36.808594 61.34375 36.679688 C 61.601562 36.554688 61.707031 36.242188 61.582031 35.984375 C 61.566406 35.953125 61.550781 35.925781 61.53125 35.902344 C 61.703125 36 61.851562 36.148438 61.945312 36.34375 " fill-opacity="1" fill-rule="nonzero"/></g></g></g><g fill="#000000" fill-opacity="1"><g transform="translate(75.908524, 98.240977)"><g><path d="M 28.5 -24.015625 C 30.1875 -23.742188 31.734375 -23.050781 33.140625 -21.9375 C 34.546875 -20.820312 35.660156 -19.4375 36.484375 -17.78125 C 37.304688 -16.132812 37.71875 -14.378906 37.71875 -12.515625 C 37.71875 -10.148438 37.113281 -8.019531 35.90625 -6.125 C 34.707031 -4.226562 32.957031 -2.734375 30.65625 -1.640625 C 28.363281 -0.546875 25.660156 0 22.546875 0 L 5.15625 0 L 5.15625 -46.625 L 21.875 -46.625 C 25.039062 -46.625 27.738281 -46.097656 29.96875 -45.046875 C 32.195312 -44.003906 33.867188 -42.585938 34.984375 -40.796875 C 36.097656 -39.015625 36.65625 -37.007812 36.65625 -34.78125 C 36.65625 -32.019531 35.90625 -29.734375 34.40625 -27.921875 C 32.914062 -26.117188 30.945312 -24.816406 28.5 -24.015625 Z M 11.234375 -26.484375 L 21.46875 -26.484375 C 24.320312 -26.484375 26.53125 -27.148438 28.09375 -28.484375 C 29.65625 -29.828125 30.4375 -31.679688 30.4375 -34.046875 C 30.4375 -36.410156 29.65625 -38.257812 28.09375 -39.59375 C 26.53125 -40.9375 24.28125 -41.609375 21.34375 -41.609375 L 11.234375 -41.609375 Z M 22 -5.015625 C 25.039062 -5.015625 27.40625 -5.726562 29.09375 -7.15625 C 30.789062 -8.582031 31.640625 -10.566406 31.640625 -13.109375 C 31.640625 -15.691406 30.742188 -17.726562 28.953125 -19.21875 C 27.171875 -20.71875 24.789062 -21.46875 21.8125 -21.46875 L 11.234375 -21.46875 L 11.234375 -5.015625 Z M 22 -5.015625 "/></g></g></g><g fill="#000000" fill-opacity="1"><g transform="translate(116.911571, 98.240977)"><g><path d="M 38.59375 -19.734375 C 38.59375 -18.578125 38.523438 -17.347656 38.390625 -16.046875 L 9.09375 -16.046875 C 9.320312 -12.441406 10.5625 -9.625 12.8125 -7.59375 C 15.0625 -5.5625 17.789062 -4.546875 21 -4.546875 C 23.632812 -4.546875 25.832031 -5.160156 27.59375 -6.390625 C 29.351562 -7.617188 30.59375 -9.253906 31.3125 -11.296875 L 37.859375 -11.296875 C 36.878906 -7.773438 34.914062 -4.910156 31.96875 -2.703125 C 29.03125 -0.492188 25.375 0.609375 21 0.609375 C 17.519531 0.609375 14.410156 -0.171875 11.671875 -1.734375 C 8.929688 -3.296875 6.78125 -5.515625 5.21875 -8.390625 C 3.65625 -11.265625 2.875 -14.597656 2.875 -18.390625 C 2.875 -22.179688 3.628906 -25.503906 5.140625 -28.359375 C 6.660156 -31.210938 8.789062 -33.410156 11.53125 -34.953125 C 14.28125 -36.492188 17.4375 -37.265625 21 -37.265625 C 24.476562 -37.265625 27.554688 -36.503906 30.234375 -34.984375 C 32.910156 -33.460938 34.972656 -31.375 36.421875 -28.71875 C 37.867188 -26.070312 38.59375 -23.078125 38.59375 -19.734375 Z M 32.3125 -21 C 32.3125 -23.320312 31.796875 -25.316406 30.765625 -26.984375 C 29.742188 -28.660156 28.351562 -29.929688 26.59375 -30.796875 C 24.832031 -31.671875 22.878906 -32.109375 20.734375 -32.109375 C 17.660156 -32.109375 15.039062 -31.125 12.875 -29.15625 C 10.707031 -27.195312 9.46875 -24.476562 9.15625 -21 Z M 32.3125 -21 "/></g></g></g><g fill="#000000" fill-opacity="1"><g transform="translate(158.382847, 98.240977)"><g><path d="M 38.59375 -19.734375 C 38.59375 -18.578125 38.523438 -17.347656 38.390625 -16.046875 L 9.09375 -16.046875 C 9.320312 -12.441406 10.5625 -9.625 12.8125 -7.59375 C 15.0625 -5.5625 17.789062 -4.546875 21 -4.546875 C 23.632812 -4.546875 25.832031 -5.160156 27.59375 -6.390625 C 29.351562 -7.617188 30.59375 -9.253906 31.3125 -11.296875 L 37.859375 -11.296875 C 36.878906 -7.773438 34.914062 -4.910156 31.96875 -2.703125 C 29.03125 -0.492188 25.375 0.609375 21 0.609375 C 17.519531 0.609375 14.410156 -0.171875 11.671875 -1.734375 C 8.929688 -3.296875 6.78125 -5.515625 5.21875 -8.390625 C 3.65625 -11.265625 2.875 -14.597656 2.875 -18.390625 C 2.875 -22.179688 3.628906 -25.503906 5.140625 -28.359375 C 6.660156 -31.210938 8.789062 -33.410156 11.53125 -34.953125 C 14.28125 -36.492188 17.4375 -37.265625 21 -37.265625 C 24.476562 -37.265625 27.554688 -36.503906 30.234375 -34.984375 C 32.910156 -33.460938 34.972656 -31.375 36.421875 -28.71875 C 37.867188 -26.070312 38.59375 -23.078125 38.59375 -19.734375 Z M 32.3125 -21 C 32.3125 -23.320312 31.796875 -25.316406 30.765625 -26.984375 C 29.742188 -28.660156 28.351562 -29.929688 26.59375 -30.796875 C 24.832031 -31.671875 22.878906 -32.109375 20.734375 -32.109375 C 17.660156 -32.109375 15.039062 -31.125 12.875 -29.15625 C 10.707031 -27.195312 9.46875 -24.476562 9.15625 -21 Z M 32.3125 -21 "/></g></g></g><g fill="#fbcb1c" fill-opacity="1"><g transform="translate(199.856529, 98.240977)"><g><path d="M 2.875 -23.34375 C 2.875 -27.894531 3.898438 -31.988281 5.953125 -35.625 C 8.003906 -39.257812 10.800781 -42.097656 14.34375 -44.140625 C 17.894531 -46.191406 21.832031 -47.21875 26.15625 -47.21875 C 31.238281 -47.21875 35.675781 -45.988281 39.46875 -43.53125 C 43.257812 -41.082031 46.023438 -37.609375 47.765625 -33.109375 L 40.46875 -33.109375 C 39.175781 -35.921875 37.3125 -38.082031 34.875 -39.59375 C 32.445312 -41.113281 29.539062 -41.875 26.15625 -41.875 C 22.894531 -41.875 19.972656 -41.113281 17.390625 -39.59375 C 14.804688 -38.082031 12.773438 -35.929688 11.296875 -33.140625 C 9.828125 -30.359375 9.09375 -27.09375 9.09375 -23.34375 C 9.09375 -19.644531 9.828125 -16.398438 11.296875 -13.609375 C 12.773438 -10.828125 14.804688 -8.675781 17.390625 -7.15625 C 19.972656 -5.644531 22.894531 -4.890625 26.15625 -4.890625 C 29.539062 -4.890625 32.445312 -5.632812 34.875 -7.125 C 37.3125 -8.613281 39.175781 -10.765625 40.46875 -13.578125 L 47.765625 -13.578125 C 46.023438 -9.117188 43.257812 -5.671875 39.46875 -3.234375 C 35.675781 -0.804688 31.238281 0.40625 26.15625 0.40625 C 21.832031 0.40625 17.894531 -0.609375 14.34375 -2.640625 C 10.800781 -4.671875 8.003906 -7.488281 5.953125 -11.09375 C 3.898438 -14.707031 2.875 -18.789062 2.875 -23.34375 Z M 2.875 -23.34375 "/></g></g></g><g fill="#fbcb1c" fill-opacity="1"><g transform="translate(251.494959, 98.240977)"><g><path d="M 11.234375 -46.625 L 11.234375 0 L 5.15625 0 L 5.15625 -46.625 Z M 11.234375 -46.625 "/></g></g></g></svg>